<svg width="16" height="16" viewBox="0 0 1024 1024" fill="none" xmlns="http://www.w3.org/2000/svg">
    <path d="M112.7424 256.2048a51.2 51.2 0 0 0-51.3024 51.2V716.8a51.2 51.2 0 0 0 51.2 51.2h125.2352a153.6 153.6 0 0 1 79.0528 21.9136l103.6288 62.208a33.28 33.28 0 0 0 50.4832-28.5696V200.6016a33.28 33.28 0 0 0-50.3808-28.4672L317.1328 234.4448a153.6 153.6 0 0 1-79.5648 22.016l-124.8256-0.256z m124.928-50.944a102.4 102.4 0 0 0 53.0432-14.6944L394.24 128.256a84.48 84.48 0 0 1 128 72.3456v622.9504A84.48 84.48 0 0 1 394.24 896l-103.68-62.208A102.4 102.4 0 0 0 237.8752 819.2H112.64a102.4 102.4 0 0 1-102.4-102.4V307.4048a102.4 102.4 0 0 1 102.4-102.4l125.0304 0.256z m428.8 517.632a25.6 25.6 0 1 1-20.6848-46.8992 179.2 179.2 0 0 0-0.3072-328.1408 25.6 25.6 0 1 1 20.5824-46.848 230.4 230.4 0 0 1 0.4096 421.888z m82.6368 187.392a25.6 25.6 0 0 1-20.6848-46.848A384 384 0 0 0 957.44 512a384.0512 384.0512 0 0 0-229.6832-351.744 25.6 25.6 0 1 1 20.6336-46.848A435.2 435.2 0 0 1 1008.64 512a435.2 435.2 0 0 1-259.5328 398.2848z" fill="#000000" stroke="#667085" stroke-width="1.5" stroke-linecap="round" stroke-linejoin="round"/>
</svg>
