<svg width="16" height="16" viewBox="0 0 1024 1024" fill="none" xmlns="http://www.w3.org/2000/svg">
<path d="M512 704c-23.466667 0-42.666667-19.2-42.666667-42.666667V362.666667c0-23.466667 19.2-42.666667 42.666667-42.666667s42.666667 19.2 42.666667 42.666667v298.666666c0 23.466667-19.2 42.666667-42.666667 42.666667zM704 832c-23.466667 0-42.666667-19.2-42.666667-42.666667V234.666667c0-23.466667 19.2-42.666667 42.666667-42.666667s42.666667 19.2 42.666667 42.666667v554.666666c0 23.466667-19.2 42.666667-42.666667 42.666667zM128 704c-23.466667 0-42.666667-19.2-42.666667-42.666667V362.666667c0-23.466667 19.2-42.666667 42.666667-42.666667s42.666667 19.2 42.666667 42.666667v298.666666c0 23.466667-19.2 42.666667-42.666667 42.666667zM896 682.666667c-23.466667 0-42.666667-19.2-42.666667-42.666667V384c0-23.466667 19.2-42.666667 42.666667-42.666667s42.666667 19.2 42.666667 42.666667v256c0 23.466667-19.2 42.666667-42.666667 42.666667zM320 981.333333c-23.466667 0-42.666667-19.2-42.666667-42.666666V85.333333c0-23.466667 19.2-42.666667 42.666667-42.666666s42.666667 19.2 42.666667 42.666666v853.333334c0 23.466667-19.2 42.666667-42.666667 42.666666z" fill="#333333" stroke-width="1.5" stroke-linecap="round" stroke-linejoin="round"></path>
</svg>
